# AST/ASF file generated using VICON BodyLanguage
# -----------------------------------------------
:version 1.10
:name VICON
:units
  mass 1.0
  length 0.45
  angle deg
:documentation
   .ast/.asf automatically generated from VICON data using
   VICON BodyBuilder and BodyLanguage model FoxedUp or BRILLIANT.MOD
:root
   order TX TY TZ RX RY RZ
   axis XYZ
   position 0 0 0  
   orientation 0 0 0 
:bonedata
  begin
     id 1 
     name lhipjoint
     direction 0.734343 -0.627749 0.258209 
     length 2.5437 
     axis 0 0 0  XYZ
  end
  begin
     id 2 
     name lfemur
     direction 0.34202 -0.939693 0  
     length 6.7391  
     axis 0 0 20  XYZ
    dof rx ry rz
    limits (-160.0 20.0)
           (-70.0 70.0)
           (-60.0 70.0)
  end
  begin
     id 3 
     name ltibia
     direction 0.34202 -0.939693 0   
     length 7.21536   
     axis 0 0 20   XYZ
    dof rx
    limits (-10.0 170.0)
  end
  begin
     id 4 
     name lfoot
     direction 0.0489572 -0.134509 0.989702   
     length 1.61313   
     axis -90 7.62852e-016 20   XYZ
    dof rx rz
    limits (-45.0 90.0)
           (-70.0 20.0)
  end
  begin
     id 5 
     name ltoes
     direction 1.53451e-011 -4.21692e-011 1   
     length 0.823104   
     axis -90 7.62852e-016 20   XYZ
    dof rx
    limits (-90.0 20.0)
  end
  begin
     id 6 
     name rhipjoint
     direction -0.746398 -0.615468 0.253157   
     length 2.59446  
     axis 0 0 0  XYZ 
  end
  begin
     id 7 
     name rfemur
     direction -0.34202 -0.939693 0   
     length 6.7075   
     axis 0 0 -20   XYZ
    dof rx ry rz
    limits (-160.0 20.0)
           (-70.0 70.0)
           (-70.0 60.0)
  end
  begin
     id 8 
     name rtibia
     direction -0.34202 -0.939693 0   
     length 7.27262   
     axis 0 0 -20   XYZ
    dof rx
    limits (-10.0 170.0)
 end
 begin
     id 9 
     name rfoot
     direction -0.0455203 -0.125066 0.991104   
     length 1.91095  
     axis -90 -7.62852e-016 -20   XYZ
    dof rx rz
    limits (-45.0 90.0)
           (-20.0 70.0)
  end
  begin
     id 10 
     name rtoes
     direction -1.53601e-011 -4.21913e-011 1   
     length 0.969037   
     axis -90 -7.62852e-016 -20   XYZ
    dof rx
    limits (-90.0 20.0)
  end
  begin
     id 11 
     name lowerback
     direction 0.0181546 0.999122 -0.0377542   
     length 1.99916   
     axis 0 0 0   XYZ
    dof rx ry rz
    limits (-20.0 45.0)
           (-30.0 30.0)
           (-30.0 30.0)
  end
  begin
     id 12 
     name upperback
     direction 0.0203486 0.99589 0.0882534   
     length 1.951   
     axis 0 0 0   XYZ
    dof rx ry rz
    limits (-20.0 45.0)
           (-30.0 30.0)
           (-30.0 30.0)
  end
  begin
     id 13 
     name thorax
     direction 0.0131685 0.994241 0.106355   
     length 1.97461   
     axis 0 0 0   XYZ
    dof rx ry rz
    limits (-20.0 45.0)
           (-30.0 30.0)
           (-30.0 30.0)
  end
  begin
     id 14 
     name lowerneck
     direction -0.0281395 0.999325 0.023617   
     length 1.7959   
     axis 0 0 0   XYZ
    dof rx ry rz
    limits (-20.0 45.0)
           (-30.0 30.0)
           (-30.0 30.0)
  end
  begin
     id 15 
     name upperneck
     direction 0.0288721 0.991984 -0.123019   
     length 1.79917   
     axis 0 0 0   XYZ
    dof rx ry rz
    limits (-20.0 45.0)
           (-30.0 30.0)
           (-30.0 30.0)
  end
  begin
     id 16
     name head
     direction 0.0133797 0.998944 -0.0439492  
     length 1.80902  
     axis 0 0 0   XYZ
    dof rx ry rz
    limits (-20.0 45.0)
           (-30.0 30.0)
           (-30.0 30.0)
  end
  begin
     id 17 
     name lclavicle
     direction 0.919195 0.377107 0.113449  
     length 3.17815  
     axis 0 0 0   XYZ
    dof ry rz
    limits (-20.0 10.0)
           (0.0 20.0)
  end
  begin
     id 18 
     name lhumerus
     direction 1 -4.48959e-011 2.13129e-027   
     length 4.84137   
     axis 180 -30 -90   XYZ
    dof rx ry rz
    limits (-60.0 90.0)
           (-90.0 90.0)
           (-90.0 90.0)
  end
  begin
     id 19
     name lradius
     direction 1 -4.48957e-011 -6.30627e-028   
     length 3.2452   
     axis 180 -30 -90   XYZ
    dof rx
    limits (-10.0 170.0)
  end
  begin
     id 20
     name lwrist
     direction 1 -4.4901e-011 9.13299e-027   
     length 1.6226   
     axis -6.84618e-015 90 90   XYZ
    dof ry
    limits (-180.0 0.0)
 end
  begin
     id 21 
     name lhand
     direction 1 -4.48816e-011 1.82293e-026   
     length 0.521221   
     axis -1.16502e-014 90 90   XYZ
    dof rx rz
    limits (-90.0 90.0)
           (-45.0 45.0)
  end
  begin
     id 22 
     name lfingers
     direction 1 -4.49108e-011 3.65687e-026   
     length 0.420221   
     axis -2.33008e-014 90 90   XYZ
    dof rx
    limits (0.0 90.0)
  end
  begin
     id 23
     name lthumb
     direction 0.707107 -6.34943e-011 0.707107   
     length 0.603356   
     axis -90 45 5.69224e-014   XYZ
    dof rx rz
    limits (-45.0 45.0)
           (-45.0 45.0)
  end
  begin
     id 24 
     name rclavicle
     direction -0.90847 0.38596 0.160368   
     length 3.12973  
     axis 0 0 0   XYZ 
    dof ry rz
    limits (-10.0 20.0)
           (-20.0 0.0)
  end
  begin
     id 25 
     name rhumerus
     direction -1 -4.48974e-011 4.47268e-028  
     length 4.72284   
     axis 180 30 90   XYZ
    dof rx ry rz
    limits (-90.0 60.0)
           (-90.0 90.0)
           (-90.0 90.0)
  end
  begin
     id 26 
     name rradius
     direction -1 -4.48969e-011 3.43203e-027   
     length 3.23459   
     axis 180 30 90   XYZ
    dof rx
    limits (-10.0 170.0)
  end
  begin
     id 27 
     name rwrist
     direction -1 -4.48969e-011 9.12911e-027   
     length 1.6173   
     axis -6.84618e-015 -90 -90   XYZ
    dof ry
    limits (-180.0 0.0)
  end
  begin
     id 28
     name rhand
     direction -1 -4.49194e-011 1.83006e-026   
     length 0.307416   
     axis -1.16502e-014 -90 -90   XYZ
    dof rx rz
    limits (-90.0 90.0)
           (-45.0 45.0)
  end
  begin
     id 29
     name rfingers
     direction -1 -4.48423e-011 3.63103e-026   
     length 0.247847   
     axis -2.33008e-014 -90 -90   XYZ
    dof rx
    limits (0.0 90.0)
  end
  begin
     id 30
     name rthumb
     direction -0.707107 -6.34802e-011 0.707107   
     length 0.35586   
     axis -90 -45 -5.69224e-014   XYZ
    dof rx rz
    limits (-45.0 45.0)
           (-45.0 45.0)
  end
:hierarchy
  begin
    root lhipjoint rhipjoint lowerback
    lhipjoint lfemur
    lfemur ltibia
    ltibia lfoot
    lfoot ltoes
    rhipjoint rfemur
    rfemur rtibia
    rtibia rfoot
    rfoot rtoes
    lowerback upperback
    upperback thorax
    thorax lowerneck lclavicle rclavicle
    lowerneck upperneck
    upperneck head
    lclavicle lhumerus
    lhumerus lradius
    lradius lwrist
    lwrist lhand lthumb
    lhand lfingers
    rclavicle rhumerus
    rhumerus rradius
    rradius rwrist
    rwrist rhand rthumb
    rhand rfingers
  end

#!OML:ASF H:\Terrain\Patient Classification 1\Animal1\Tuesday\Animal1.ASF
:FULLY-SPECIFIED
:DEGREES
323
root 12.7963 16.6361 -12.527 12.6118 -22.7283 -1.46228
lowerback -2.58922 -0.63487 3.69373
upperback -1.15236 -0.95604 2.45976
thorax 0.250828 -0.488545 0.426435
lowerneck 16.2584 0.247679 -7.83031
upperneck -4.26149 -0.57673 8.13821
head -3.84508 -0.620031 3.84346
rclavicle -2.98177e-016 1.19271e-014
rhumerus -38.9285 32.9208 -99.9427
rradius 38.3861
rwrist -6.41464
rhand -20.1486 19.7327
rfingers 7.12502
rthumb 6.19631 -10.1567
lclavicle -2.98177e-016 1.19271e-014
lhumerus -44.936 -8.67958 93.4038
lradius 48.4619
lwrist -23.9682
lhand 6.00181 45.842
lfingers 7.12502
lthumb 31.325 73.181
rfemur -20.3565 21.9845 16.4297
rtibia 15.2423
rfoot -1.43221 -22.1353
rtoes -8.89735
lfemur -11.2042 -11.9564 -12.6584
ltibia 14.3375
lfoot -14.5797 27.3969
ltoes -3.1137
324
root 12.7943 16.633 -12.5211 12.392 -22.9462 -1.48081
lowerback -2.3652 -0.522987 3.7431
upperback -1.07627 -0.797828 2.41522
thorax 0.205215 -0.409487 0.359275
lowerneck 16.1493 0.15668 -7.82551
upperneck -4.1181 -0.692162 8.19139
head -3.77467 -0.678137 3.86532
rclavicle -2.48481e-015 3.73715e-014
rhumerus -38.9037 32.756 -99.8667
rradius 38.416
rwrist -6.38283
rhand -20.2905 19.886
rfingers 7.12502
rthumb 6.05935 -10.0073
lclavicle -2.48481e-015 3.73715e-014
lhumerus -44.8526 -8.62174 93.2705
lradius 48.9
lwrist -22.8662
lhand 7.40674 46.2484
lfingers 7.12502
lthumb 32.6628 73.3192
rfemur -20.1565 21.8837 16.5734
rtibia 15.3904
rfoot -1.65998 -21.886
rtoes -9.48251
lfemur -10.8992 -11.7816 -12.7641
ltibia 14.4142
lfoot -15.006 27.2988
ltoes -2.13058
325
root 12.7903 16.6299 -12.5183 12.3005 -23.1361 -1.46122
lowerback -3.00131 -0.347273 4.43268
upperback -0.564254 -0.63367 1.84844
thorax 1.07666 -0.307775 -0.61088
lowerneck 15.8981 0.0496224 -7.52132
upperneck -4.40673 -0.703269 8.65774
head -3.82502 -0.710972 3.96437
rclavicle 3.19049e-014 -8.74653e-015
rhumerus -37.8599 32.0994 -99.9244
rradius 38.2733
rwrist -6.29218
rhand -20.3611 19.9753
rfingers 7.12502
rthumb 5.99117 -9.92003
lclavicle 3.19049e-014 -8.74653e-015
lhumerus -44.2276 -9.44474 92.6252
lradius 48.9818
lwrist -22.7668
lhand 7.29235 46.2057
lfingers 7.12502
lthumb 32.5539 73.299
rfemur -20.1239 21.6731 16.6488
rtibia 15.5039
rfoot -1.37666 -21.5304
rtoes -10.188
lfemur -10.8241 -11.6518 -12.8535
ltibia 14.6088
lfoot -15.497 27.2858
ltoes -1.39947
326
root 12.7877 16.6291 -12.5182 12.4063 -23.2236 -1.37841
lowerback -3.45669 -0.297172 4.78213
upperback -0.384791 -0.608727 1.49484
thorax 1.51008 -0.281858 -1.1724
lowerneck 15.7372 0.0336904 -7.30093
upperneck -4.47939 -0.64999 8.85831
head -3.82787 -0.697485 3.98673
rclavicle 3.93594e-014 1.19271e-015
rhumerus -37.3668 31.7611 -100.121
rradius 38.1964
rwrist -6.18505
rhand -20.5177 19.9192
rfingers 7.12502
rthumb 5.84001 -9.98036
lclavicle 3.93594e-014 1.19271e-015
lhumerus -44.1104 -10.054 92.4163
lradius 48.6677
lwrist -23.9662
lhand 5.36484 45.6889
lfingers 7.12502
lthumb 30.7179 73.1438
rfemur -20.3254 21.4324 16.554
rtibia 15.5565
rfoot -1.46886 -21.237
rtoes -9.58855
lfemur -11.0927 -11.499 -12.9215
ltibia 14.8889
lfoot -15.7956 27.2019
ltoes -0.743938
327
root 12.7855 16.6268 -12.5183 12.5913 -23.2341 -1.5496
lowerback -3.60097 -0.280338 5.04187
upperback -0.408962 -0.604403 1.45753
thorax 1.5633 -0.277341 -1.3566
lowerneck 15.7905 0.0412198 -7.24837
upperneck -4.51564 -0.628177 8.88935
head -3.84955 -0.690924 3.98742
rclavicle 4.81059e-014 -1.59028e-014
rhumerus -37.2957 31.5662 -100.178
rradius 38.1739
rwrist -6.06825
rhand -20.7168 20.1275
rfingers 7.12502
rthumb 5.64779 -9.77725
lclavicle 4.81059e-014 -1.59028e-014
lhumerus -44.0805 -10.0021 92.2424
lradius 48.6935
lwrist -23.794
lhand 5.4499 45.3948
lfingers 7.12502
lthumb 30.799 72.8344
rfemur -20.5021 21.4416 16.676
rtibia 15.6157
rfoot -1.77518 -21.2
rtoes -9.03496
lfemur -11.3701 -11.1789 -12.7228
ltibia 15.1798
lfoot -16.0731 26.8608
ltoes 0.0955822
328
root 12.7827 16.6226 -12.5165 12.6338 -23.2314 -1.74986
lowerback -3.50624 -0.280411 5.10106
upperback -0.469201 -0.601167 1.61061
thorax 1.44943 -0.279481 -1.23109
lowerneck 15.9138 0.0740902 -7.38093
upperneck -4.53826 -0.618601 8.86925
head -3.8761 -0.6851 4.00386
rclavicle -4.9398e-014 2.38542e-015
rhumerus -37.4249 31.4572 -100.019
rradius 38.2164
rwrist -5.85821
rhand -20.7718 20.3096
rfingers 7.12502
rthumb 5.59467 -9.59652
lclavicle -4.9398e-014 2.38542e-015
lhumerus -44.1998 -9.78247 92.3685
lradius 48.7389
lwrist -23.8775
lhand 5.51028 45.3659
lfingers 7.12502
lthumb 30.8566 72.7946
rfemur -20.4826 21.3959 16.9234
rtibia 15.6752
rfoot -1.81675 -21.1489
rtoes -9.08071
lfemur -11.5044 -10.8071 -12.5394
ltibia 15.5164
lfoot -15.7319 26.6681
ltoes -1.58616
329
root 12.7801 16.6194 -12.5168 12.5582 -23.2757 -1.71629
lowerback -3.28566 -0.333516 4.769
upperback -0.56583 -0.64462 1.81692
thorax 1.22984 -0.309311 -0.833605
lowerneck 15.9192 0.147622 -7.60505
upperneck -4.42037 -0.577274 8.80873
head -3.84324 -0.656665 4.01701
rclavicle -7.81224e-014 7.95139e-015
rhumerus -37.6822 31.7423 -99.8835
rradius 38.3151
rwrist -5.78461
rhand -20.6268 20.2491
rfingers 7.12502
rthumb 5.73465 -9.65331
lclavicle -7.81224e-014 7.95139e-015
lhumerus -44.4071 -9.33127 92.5694
lradius 48.8142
lwrist -24.1177
lhand 5.64632 45.4167
lfingers 7.12502
lthumb 30.9863 72.8208
rfemur -20.4273 21.2549 16.9535
rtibia 15.6875
rfoot -1.96329 -21.0198
rtoes -8.72077
lfemur -11.6267 -10.6543 -12.5912
ltibia 15.8911
lfoot -15.4929 26.6571
ltoes -3.09843
330
root 12.7785 16.6146 -12.5204 12.5478 -23.3301 -1.72952
lowerback -3.1123 -0.32697 4.63067
upperback -0.635832 -0.618227 1.89241
thorax 1.0643 -0.300912 -0.676167
lowerneck 15.9112 0.118344 -7.58377
upperneck -4.37436 -0.622802 8.7054
head -3.82384 -0.673258 3.98353
rclavicle -4.44284e-014 -1.03368e-014
rhumerus -37.6918 31.6615 -99.7041
rradius 38.3866
rwrist -5.56363
rhand -19.9604 20.2436
rfingers 7.12502
rthumb 6.37803 -9.64038
lclavicle -4.44284e-014 -1.03368e-014
lhumerus -44.5192 -9.21415 92.6611
lradius 48.8041
lwrist -24.2495
lhand 5.61932 45.4129
lfingers 7.12502
lthumb 30.9605 72.8219
rfemur -20.4732 21.228 16.9833
rtibia 15.7298
rfoot -1.9364 -20.9184
rtoes -9.32944
lfemur -11.7678 -10.5214 -12.5789
ltibia 16.1901
lfoot -15.9283 26.4683
ltoes -2.26358
331
root 12.7779 16.6112 -12.5213 12.522 -23.399 -1.75747
lowerback -3.0155 -0.295849 4.68104
upperback -0.667305 -0.570429 1.86752
thorax 0.979079 -0.278891 -0.727141
lowerneck 16.0079 0.076971 -7.54637
upperneck -4.40927 -0.676957 8.68147
head -3.84531 -0.70137 3.97542
rclavicle -2.36554e-014 1.27222e-014
rhumerus -37.619 31.4088 -99.5903
rradius 38.4323
rwrist -5.42027
rhand -19.2003 20.0421
rfingers 7.12502
rthumb 7.11179 -9.81843
lclavicle -2.36554e-014 1.27222e-014
lhumerus -44.565 -9.1935 92.6144
lradius 48.8809
lwrist -23.8286
lhand 5.91307 45.5791
lfingers 7.12502
lthumb 31.2405 72.9344
rfemur -20.5143 21.1659 17.0474
rtibia 15.8486
rfoot -1.73196 -20.7719
rtoes -10.2815
lfemur -11.8325 -10.2731 -12.5889
ltibia 16.4235
lfoot -16.223 26.2484
ltoes -1.78022
332
root 12.7772 16.6101 -12.5207 12.5027 -23.4499 -1.77423
lowerback -2.96095 -0.324155 4.68298
upperback -0.711955 -0.603145 1.88931
thorax 0.901276 -0.297358 -0.706427
lowerneck 16.0539 0.125099 -7.66698
upperneck -4.33652 -0.639484 8.73624
head -3.83309 -0.684779 4.00944
rclavicle 5.76476e-015 2.62396e-014
rhumerus -37.7862 31.6187 -99.7771
rradius 38.3947
rwrist -5.71685
rhand -19.6465 20.0155
rfingers 7.12502
rthumb 6.68111 -9.8591
lclavicle 5.76476e-015 2.62396e-014
lhumerus -44.5919 -8.82549 92.4531
lradius 49.0613
lwrist -23.1123
lhand 6.65169 45.8766
lfingers 7.12502
lthumb 31.9441 73.0938
rfemur -20.5391 21.0597 17.1002
rtibia 15.9652
rfoot -1.79442 -20.6161
rtoes -9.9562
lfemur -11.924 -10.0546 -12.6097
ltibia 16.6867
lfoot -16.4004 26.1371
ltoes -1.43308
333
root 12.7752 16.6073 -12.5226 12.5528 -23.4406 -1.82632
lowerback -2.95938 -0.364591 4.69705
upperback -0.743645 -0.656434 1.91506
thorax 0.865471 -0.325118 -0.689569
lowerneck 16.0245 0.111143 -7.60239
upperneck -4.30887 -0.654004 8.62597
head -3.81876 -0.686145 3.96433
rclavicle 3.8763e-015 7.95139e-015
rhumerus -37.9001 31.7518 -99.9097
rradius 38.3596
rwrist -5.74609
rhand -20.1235 20.3245
rfingers 7.12502
rthumb 6.22062 -9.56413
lclavicle 3.8763e-015 7.95139e-015
lhumerus -44.6027 -8.69513 92.4081
lradius 48.9354
lwrist -23.0941
lhand 6.55015 46.0225
lfingers 7.12502
lthumb 31.8474 73.2589
rfemur -20.6424 20.9595 17.1665
rtibia 16.0934
rfoot -2.06205 -20.5066
rtoes -9.08913
lfemur -12.0996 -9.8513 -12.5441
ltibia 16.9131
lfoot -16.5361 25.9964
ltoes -0.91203
334
root 12.7734 16.6038 -12.5256 12.5706 -23.3813 -1.8583
lowerback -2.90935 -0.383757 4.71225
upperback -0.765904 -0.678344 1.92619
thorax 0.813478 -0.337338 -0.686815
lowerneck 15.9777 0.0257706 -7.47641
upperneck -4.26482 -0.755592 8.46262
head -3.78965 -0.728094 3.89845
rclavicle -1.49089e-015 8.74653e-015
rhumerus -37.9265 31.64 -99.8303
rradius 38.4817
rwrist -5.54494
rhand -19.807 20.2453
rfingers 7.12502
rthumb 6.52611 -9.63418
lclavicle -1.49089e-015 8.74653e-015
lhumerus -44.6836 -8.85682 92.5452
lradius 48.6484
lwrist -23.7705
lhand 5.77531 46.0828
lfingers 7.12502
lthumb 31.1092 73.4634
rfemur -20.7421 20.795 17.2416
rtibia 16.2608
rfoot -2.28023 -20.4124
rtoes -8.60887
lfemur -12.2258 -9.63787 -12.4841
ltibia 17.0669
lfoot -16.5731 25.7384
ltoes -0.753355
335
root 12.7705 16.5995 -12.5268 12.4998 -23.3595 -1.85439
lowerback -2.8188 -0.410776 4.64856
upperback -0.772752 -0.706677 1.9615
thorax 0.755645 -0.352749 -0.615137
lowerneck 16.016 0.0359924 -7.48176
upperneck -4.20864 -0.74884 8.45928
head -3.77906 -0.725316 3.89759
rclavicle -1.47101e-014 8.74653e-015
rhumerus -38.013 31.6928 -99.8045
rradius 38.601
rwrist -5.64698
rhand -19.5167 19.9798
rfingers 7.12502
rthumb 6.80639 -9.89077
lclavicle -1.47101e-014 8.74653e-015
lhumerus -44.7436 -8.78699 92.5958
lradius 48.5107
lwrist -24.2385
lhand 5.09275 46.0819
lfingers 7.12502
lthumb 30.4584 73.5852
rfemur -20.7366 20.653 17.3139
rtibia 16.4186
rfoot -2.47571 -20.3644
rtoes -8.80215
lfemur -12.2457 -9.46465 -12.477
ltibia 17.2026
lfoot -16.8967 25.4011
ltoes 0.507003
336
root 12.7677 16.5957 -12.5257 12.4112 -23.3953 -1.79653
lowerback -2.82062 -0.437483 4.54168
upperback -0.749086 -0.740456 1.97832
thorax 0.78113 -0.368935 -0.539551
lowerneck 16.1818 0.112417 -7.54928
upperneck -4.27246 -0.661617 8.53513
head -3.83178 -0.689047 3.92891
rclavicle -2.6339e-014 -1.51076e-014
rhumerus -38.0897 31.8909 -99.8697
rradius 38.6435
rwrist -5.86487
rhand -19.5998 20.2755
rfingers 7.12502
rthumb 6.72618 -9.59769
lclavicle -2.6339e-014 -1.51076e-014
lhumerus -44.707 -8.64934 92.5673
lradius 48.3935
lwrist -24.3156
lhand 4.58274 45.8364
lfingers 7.12502
lthumb 29.9719 73.4287
rfemur -20.713 20.5257 17.3248
rtibia 16.5349
rfoot -2.40719 -20.3169
rtoes -9.9311
lfemur -12.2362 -9.29599 -12.5524
ltibia 17.3294
lfoot -17.1728 25.1275
ltoes 1.96841
